<?xml version="1.0" encoding="UTF-8"?> <svg xmlns="http://www.w3.org/2000/svg" id="Ebene_2" viewBox="0 0 127.56 59.53"><defs><style>.cls-1{fill:#d9004c;}.cls-1,.cls-2{stroke-width:0px;}.cls-2{fill:#fff;}</style></defs><g id="Ebene_2-2"><rect class="cls-1" width="127.56" height="59.53" rx="7.09" ry="7.09"></rect><path class="cls-2" d="m87.06,17.05c-2.44-2.23-3.53-1.15-4.57-.01l-7.17,7.89-7.17-7.89c-1.04-1.13-2.13-2.22-4.57.01s-1.45,3.42-.41,4.55l7.59,8.35,1.19,1.31v9.69c0,1.54.08,3.08,3.38,3.08s3.38-1.54,3.38-3.08v-9.69s1.19-1.31,1.19-1.31l7.59-8.35c1.04-1.13,2.02-2.32-.41-4.55Z"></path><path class="cls-2" d="m59.21,39.38l-2.69-6.42c1.89-1.86,2.84-4.23,2.84-7.1,0-1.66-.33-3.06-1-4.42-.67-1.36-1.51-2.43-2.53-3.23-2.13-1.64-4.31-2.46-6.57-2.46h-8.33c-3.3,0-3.38,1.54-3.38,3.08v22c0,1.54.08,3.08,3.38,3.08s3.38-1.54,3.38-3.08v-4.84s4.24,0,4.24,0c.42,0,.85-.01,1.27-.04l.62-.04h0s2.54,6.07,2.54,6.07c.59,1.42,1.26,2.81,4.31,1.53,3.05-1.28,2.52-2.72,1.93-4.14Zm-14.91-10.14v-6.72s4.88,0,4.88,0c.79,0,1.56.29,2.3.86.74.58,1.11,1.35,1.11,2.48s-.37,1.97-1.11,2.53c-.74.56-1.49.84-2.23.84h-4.95Z"></path><path class="cls-2" d="m29.59,28.86c.97-1.41,1.46-2.96,1.46-4.65,0-2.33-.83-4.33-2.5-5.99-1.59-1.64-3.56-2.46-5.91-2.46h-9.72c-3.3,0-3.38,1.54-3.38,3.08v22c0,1.54.08,3.08,3.38,3.08h10.1c2.43,0,4.5-.86,6.2-2.59,1.7-1.73,2.58-3.87,2.63-6.43,0-2.23-.76-4.24-2.27-6.03Zm-6.95,8.3h-6.34s0-14.63,0-14.63h5.42c.85,0,1.48.13,1.9.38.42.26.61.61.63,1.38.02.64-.04,1.1-.12,1.38-.21.54-.82.81-1.84.81-1.1,0-1.89.18-2.36.54-.47.36-.71,1.09-.71,2.21s.23,1.85.69,2.21c.46.36,1.15.54,2.07.54s1.64.1,2.15.31c.33.15.57.41.71.77.14.36.21.85.21,1.46,0,1.74-.81,2.65-2.42,2.65Z"></path><path class="cls-2" d="m109.5,29.83l7.59-8.35c1.04-1.13,2.02-2.32-.41-4.55s-3.53-1.15-4.57-.01l-7.17,7.89-7.17-7.89c-1.04-1.13-2.13-2.22-4.57.01s-1.45,3.42-.41,4.55l7.59,8.35-7.59,8.35c-1.04,1.13-2.02,2.32.41,4.55,2.44,2.23,3.53,1.15,4.57.01l7.17-7.89,7.17,7.89c1.04,1.13,2.13,2.22,4.57-.01,2.44-2.23,1.45-3.42.41-4.55l-7.59-8.35Z"></path><path class="cls-2" d="m123.56,15.84c.25.14.44.34.59.6.14.25.21.54.21.85s-.07.6-.21.85c-.14.25-.34.45-.59.6-.25.14-.53.22-.85.22s-.6-.07-.85-.22c-.25-.14-.45-.34-.59-.6s-.21-.54-.21-.85.07-.6.21-.85c.14-.25.34-.45.59-.6.25-.14.53-.21.85-.21s.6.07.85.21Zm.1,2.41c.24-.25.36-.57.36-.97s-.12-.72-.36-.97c-.24-.25-.56-.37-.95-.37s-.71.13-.95.37c-.24.25-.35.57-.35.97s.12.72.35.97c.24.25.55.37.95.37s.71-.12.95-.37Zm-.32-.98c-.07.09-.16.15-.28.19l.46.68h-.51s-.39-.64-.39-.64h-.14v.65h-.42v-1.75h.78c.18,0,.33.05.44.15.11.1.17.23.17.4,0,.13-.03.24-.1.33Zm-.87-.13h.33c.06,0,.11-.02.15-.05.04-.03.06-.08.06-.14s-.02-.1-.06-.13c-.04-.03-.09-.04-.15-.04h-.33v.37Z"></path></g></svg> 